<svg width="1274" height="1274" viewBox="0 0 1274 1274" fill="none" xmlns="http://www.w3.org/2000/svg">
<g clip-path="url(#clip0_1_1437)">
<rect width="1274" height="1274" fill="#F25533"/>
<path d="M1274 0H0V1274H1274V0Z" fill="#F25533"/>
<path fill-rule="evenodd" clip-rule="evenodd" d="M558.689 1080.07V960.787H715.714V1081.07C860.918 1046.58 968.922 916.051 968.922 760.298C968.922 633.516 878.398 455.152 773.465 399.989C787.593 449.442 766.4 513.967 738.143 508.315C727.492 506.185 726.428 489.462 724.702 462.48C721.097 405.922 714.606 304.285 610.977 197.47C602.689 272.063 483.719 423.994 406.258 522.917C395.685 536.419 385.886 548.933 377.247 560.128C335.453 614.29 309.548 685.017 309.548 760.298C309.548 914.592 415.542 1044.13 558.689 1080.07ZM726.505 826.743C726.505 875.098 687.304 914.299 638.949 914.299C590.59 914.299 551.39 875.098 551.39 826.743C551.39 806.748 558.27 787.963 569.369 773.579C571.662 770.611 574.263 767.286 577.07 763.706L577.074 763.699C597.645 737.429 629.24 697.082 631.442 677.271C696.642 721.046 726.505 793.071 726.505 826.743Z" fill="white"/>
</g>
<defs>
<clipPath id="clip0_1_1437">
<rect width="1274" height="1274" fill="white"/>
</clipPath>
</defs>
</svg>
